<svg width="192.000000" height="64.000000" viewBox="0 0 192 64" fill="none" xmlns="http://www.w3.org/2000/svg" xmlns:xlink="http://www.w3.org/1999/xlink">
	<desc>
			Created with Pixso.
	</desc>
	<defs/>
	<path id="Vector 1" d="M20.36 37.7L28.03 45.29L46 26.93L19.64 0L12.21 7.58L30.9 26.93L20.36 37.7Z" fill="#900909" fill-opacity="1.000000" fill-rule="evenodd"/>
	<path id="Vector 2" d="M25.74 26.27L18.09 18.66L0.07 36.96L26.35 63.97L33.8 56.41L15.17 37.01L25.74 26.27Z" fill="#394857" fill-opacity="1.000000" fill-rule="evenodd"/>
	<path id="Union" d="M95.1963 22.936C95.1963 22.44 95.0449 22.016 94.7412 21.664C94.4531 21.312 94.0771 21.032 93.6123 20.824C93.1484 20.6 92.6367 20.392 92.0771 20.2C91.5166 20.008 90.9492 19.792 90.373 19.552C89.8125 19.296 89.3008 19 88.8369 18.6639C88.373 18.328 87.9883 17.864 87.6846 17.272Q87.2529 16.384 87.2529 15.184C87.2529 13.712 87.8047 12.48 88.9092 11.488Q89.3711 11.0787 89.8965 10.7821Q91.2822 10 93.1084 10C94.8691 10 96.5244 10.592 98.0771 11.776L97.0684 13.528Q96.6123 13.2159 96.1328 12.976C95.4287 12.592 94.5088 12.4 93.373 12.4Q92.418 12.4 91.7812 12.8505Q91.6982 12.9094 91.6211 12.976Q91.3359 13.2189 91.1758 13.5269Q90.9727 13.9187 90.9727 14.416C90.9727 14.976 91.165 15.448 91.5488 15.832C91.7891 16.056 92.0684 16.248 92.3887 16.408C92.7246 16.568 93.165 16.736 93.709 16.912C94.2686 17.088 94.6846 17.2321 94.957 17.344C95.7725 17.6479 96.4209 17.928 96.9004 18.184C97.5244 18.504 98.0205 18.9919 98.3887 19.648C98.7725 20.304 98.9648 21.088 98.9648 22C98.9648 23.728 98.3643 25.112 97.165 26.152C95.9648 27.16 94.3809 27.664 92.4131 27.664C91.2764 27.664 90.1963 27.448 89.1729 27.016Q87.6367 26.344 86.6045 25.336L87.7324 23.728Q89.7256 25.1607 91.7803 25.2571L91.7812 25.2571Q91.9287 25.264 92.0771 25.264C93.0684 25.264 93.8369 25.056 94.3809 24.64C94.9248 24.224 95.1963 23.656 95.1963 22.936ZM158.505 12.472L157.353 13.8879C156.745 13.392 156.097 13.024 155.409 12.7841C154.785 12.528 153.881 12.4 152.697 12.4C150.985 12.4 149.625 12.976 148.617 14.1281C147.625 15.264 147.129 16.856 147.129 18.9041C147.129 20.872 147.625 22.424 148.617 23.56C149.625 24.68 151.001 25.24 152.745 25.24Q155.419 25.24 157.211 23.983Q157.445 23.8183 157.665 23.632L158.817 25.096C158.257 25.576 157.841 25.912 157.569 26.104C157.393 26.232 156.969 26.488 156.297 26.872C155.273 27.416 153.913 27.688 152.217 27.688C149.481 27.688 147.257 26.88 145.545 25.264Q144.719 24.4849 144.161 23.5464Q143.001 21.5941 143.001 18.952C143.001 16.36 143.857 14.224 145.569 12.5439Q146.261 11.8522 147.069 11.3485Q149.235 10 152.241 10C153.857 10 155.185 10.296 156.225 10.8879C156.801 11.192 157.209 11.4399 157.449 11.632C157.705 11.808 158.057 12.088 158.505 12.472ZM77.0479 18.7841Q77.0479 21.4957 75.8174 23.4214Q75.2627 24.2908 74.4561 25Q71.8643 27.232 67.2324 27.232L62 27.232L62 10.432L67.5195 10.432Q71.3789 10.432 73.8867 12.2727L73.8867 12.2728Q74.1553 12.4698 74.4082 12.688Q75.3896 13.5355 76.0059 14.5952Q77.0479 16.3864 77.0479 18.7841ZM83.9619 10.432L83.9619 27.232L79.9297 27.232L79.9297 10.432L83.9619 10.432ZM113.945 15.424C113.945 17.104 113.434 18.4 112.409 19.312C111.401 20.224 109.97 20.68 108.113 20.68L105.545 20.68L105.545 27.232L101.609 27.232L101.609 10.432L105.953 10.432C108.705 10.432 110.722 10.816 112.001 11.584C113.298 12.3521 113.945 13.632 113.945 15.424ZM116.099 27.232L113.219 27.232L120.274 10.432L123.106 10.432L130.378 27.232L126.299 27.232L124.546 23.056L117.778 23.056L116.099 27.232ZM142.03 10.432L142.03 12.832L137.495 12.832L137.495 27.232L133.463 27.232L133.463 12.832L128.951 12.832L128.951 10.432L142.03 10.432ZM176.871 10.432L176.871 27.232L172.839 27.232L172.839 19.552L165.735 19.552L165.735 27.232L161.703 27.232L161.703 10.432L165.735 10.432L165.735 17.152L172.839 17.152L172.839 10.432L176.871 10.432ZM110.129 15.496C110.129 14.6 109.85 13.896 109.289 13.384Q108.474 12.616 106.865 12.616L105.545 12.616L105.545 18.448L107.129 18.448C109.129 18.448 110.129 17.464 110.129 15.496ZM72.9199 18.712Q72.9199 17.614 72.6113 16.6108Q72.6094 16.6055 72.6084 16.6C72.416 15.928 72.1123 15.304 71.6963 14.728Q71.6846 14.7109 71.6719 14.6938Q71.6699 14.6915 71.6689 14.6892Q71.0713 13.8527 69.9922 13.36Q68.9121 12.832 67.4717 12.832L66.0322 12.832L66.0322 24.832L67.208 24.832Q69.4121 24.832 70.8086 23.7696Q71.1299 23.525 71.4082 23.224Q71.5059 23.1181 71.5977 23.007Q72.9199 21.4052 72.9199 18.712ZM123.562 20.656L121.114 14.776L118.738 20.656L123.562 20.656Z" clip-rule="evenodd" fill="#900909" fill-opacity="1.000000" fill-rule="evenodd"/>
	<path id="Union" d="M72.4404 53.5178L72.4404 51.1178L66.0322 51.1178L66.0322 36.7178L62 36.7178L62 53.5178L72.4404 53.5178ZM85.2842 51.1178L85.2842 53.5178L74.8438 53.5178L74.8438 36.7178L85.1396 36.7178L85.1396 39.1178L78.876 39.1178L78.876 43.6537L84.6602 43.6537L84.6602 46.0538L78.876 46.0538L78.876 51.1178L85.2842 51.1178ZM86.7344 53.5178L89.6143 53.5178L91.2939 49.3418L98.0625 49.3418L99.8145 53.5178L103.895 53.5178L96.6221 36.7178L93.79 36.7178L86.7344 53.5178ZM119.88 49.707L119.88 49.7072Q119.325 50.5766 118.519 51.2858Q115.927 53.5178 111.295 53.5178L106.062 53.5178L106.062 36.7178L111.582 36.7178Q115.441 36.7178 117.949 38.5585L117.949 38.559Q118.218 38.7558 118.471 38.9738Q119.451 39.8212 120.068 40.8807L120.068 40.8809Q121.11 42.6722 121.11 45.0698Q121.11 47.7814 119.88 49.707ZM134.433 53.5178L134.433 51.1178L128.024 51.1178L128.024 46.0538L133.809 46.0538L133.809 43.6537L128.024 43.6537L128.024 39.1178L134.288 39.1178L134.288 36.7178L123.992 36.7178L123.992 53.5178L134.433 53.5178ZM146.587 46.3658L151.267 53.5178L146.971 53.5178L142.795 46.8938L141.498 46.8938L141.498 53.5178L137.562 53.5178L137.562 36.7178L142.914 36.7178Q147.582 36.7178 149.13 38.9153Q149.898 40.0059 149.898 41.6378C149.898 42.8858 149.587 43.9258 148.963 44.7578Q148.42 45.4667 147.709 45.894L147.708 45.8945L147.708 45.8948Q147.191 46.2044 146.587 46.3658ZM146.082 41.6378C146.082 40.7258 145.811 40.0458 145.267 39.5978C144.738 39.1338 143.818 38.9018 142.507 38.9018L141.498 38.9018L141.498 44.5658L142.555 44.5658C143.786 44.5658 144.683 44.3257 145.242 43.8458C145.803 43.3498 146.082 42.6138 146.082 41.6378ZM116.982 44.9978C116.982 44.2618 116.879 43.5578 116.671 42.8858C116.479 42.2137 116.175 41.5898 115.759 41.0138Q115.746 40.9958 115.733 40.9781L115.731 40.975Q115.134 40.1384 114.055 39.6458C113.335 39.2938 112.494 39.1178 111.534 39.1178L110.095 39.1178L110.095 51.1178L111.271 51.1178Q113.475 51.1178 114.871 50.0554Q115.192 49.8107 115.471 49.5098C116.479 48.4218 116.982 46.9178 116.982 44.9978ZM94.6299 41.0618L97.0781 46.9418L92.2539 46.9418L94.6299 41.0618Z" clip-rule="evenodd" fill="#394857" fill-opacity="1.000000" fill-rule="evenodd"/>
</svg>
