<svg width="24.000000" height="24.000000" viewBox="0 0 24 24" fill="#000000" xmlns="http://www.w3.org/2000/svg" xmlns:xlink="http://www.w3.org/1999/xlink">
	<desc>
			Created with Pixso.
	</desc>
	<defs>
		<clipPath id="clip1_519">
			<rect id="SIZE=24, NAME=ARROW RIGHT" width="24.000000" height="24.000000" fill="white" fill-opacity="0"/>
		</clipPath>
	</defs>
	<g clip-path="url(#clip1_519)">
		<path id="Union" d="M13.707 4.29285C13.3164 3.90234 12.6836 3.90234 12.293 4.29285C11.9023 4.68347 11.9023 5.31653 12.293 5.70715L17.5859 11L4 11C3.44727 11 3 11.4478 3 12C3 12.5522 3.44727 13 4 13L17.5859 13L12.293 18.2928C11.9023 18.6835 11.9023 19.3165 12.293 19.7072C12.6836 20.0977 13.3164 20.0977 13.707 19.7072L20.707 12.7072C20.8901 12.524 20.9873 12.2877 20.999 12.048C20.9995 12.032 21 12.016 21 12L21 11.9907C20.9985 11.8585 20.9717 11.7324 20.9243 11.6172C20.8735 11.495 20.7993 11.385 20.707 11.2928L13.707 4.29285Z" clip-rule="evenodd"  fill-opacity="1.000000" fill-rule="evenodd"/>
	</g>
</svg>
