<svg width="32.000000" height="32.000000" viewBox="0 0 32 32" fill="none" xmlns="http://www.w3.org/2000/svg" xmlns:xlink="http://www.w3.org/1999/xlink">
	<desc>
			Created with Pixso.
	</desc>
	<defs>
		<clipPath id="clip4_6764">
			<rect id="bell" width="32.000000" height="32.000000" fill="white" fill-opacity="0"/>
		</clipPath>
	</defs>
	<rect id="bell" width="32.000000" height="32.000000" fill="#FFFFFF" fill-opacity="0"/>
	<g clip-path="url(#clip4_6764)">
		<path id="Vector" d="M20 24L20 25.33C20 26.39 19.57 27.41 18.82 28.16C18.07 28.91 17.06 29.33 16 29.33C14.93 29.33 13.92 28.91 13.17 28.16C12.42 27.41 12 26.39 12 25.33L12 24L6.66 24C5.93 24 5.33 23.39 5.33 22.66C5.33 21.93 5.93 21.33 6.66 21.33L8 21.33L8 13.33C8 11.44 8.66 9.61 9.89 8.16C11.11 6.72 12.8 5.75 14.66 5.44L14.66 4C14.66 3.64 14.8 3.3 15.05 3.05C15.3 2.8 15.64 2.66 16 2.66C16.35 2.66 16.69 2.8 16.94 3.05C17.19 3.3 17.33 3.64 17.33 4L17.33 5.44C21.11 6.07 24 9.36 24 13.33L24 21.33L25.33 21.33C26.06 21.33 26.66 21.93 26.66 22.66C26.66 23.39 26.06 24 25.33 24L20 24ZM10.66 21.33L21.33 21.33L21.33 13.33C21.33 11.91 20.77 10.56 19.77 9.56C18.77 8.56 17.41 8 16 8C14.58 8 13.22 8.56 12.22 9.56C11.22 10.56 10.66 11.91 10.66 13.33L10.66 21.33ZM16 26.66C16.35 26.66 16.69 26.52 16.94 26.27C17.19 26.02 17.33 25.68 17.33 25.33L17.33 24L14.66 24L14.66 25.33C14.66 25.68 14.8 26.02 15.05 26.27C15.3 26.52 15.64 26.66 16 26.66Z" fill="#394857" fill-opacity="1.000000" fill-rule="evenodd"/>
	</g>
</svg>
