<svg width="24.000000" height="24.000000" viewBox="0 0 24 24" fill="none" xmlns="http://www.w3.org/2000/svg" xmlns:xlink="http://www.w3.org/1999/xlink">
	<desc>
			Created with Pixso.
	</desc>
	<defs>
		<clipPath id="clip1_517">
			<rect id="SIZE=24, NAME=CHAT" width="24.000000" height="24.000000" fill="white" fill-opacity="0"/>
		</clipPath>
	</defs>
	<g clip-path="url(#clip1_517)">
		<path id="Vector" d="M2 4L2 22L6 18L20 18C21.09 18 22 17.1 22 16L22 4C22 2.9 21.09 2 20 2L4 2C2.9 2 2 2.9 2 4ZM4 4L20 4L20 16L4 16L4 4ZM9 11C9.55 11 10 10.55 10 10C10 9.44 9.55 9 9 9C8.44 9 8 9.44 8 10C8 10.55 8.44 11 9 11ZM13 10C13 10.55 12.55 11 12 11C11.44 11 11 10.55 11 10C11 9.44 11.44 9 12 9C12.55 9 13 9.44 13 10ZM15 11C15.55 11 16 10.55 16 10C16 9.44 15.55 9 15 9C14.44 9 14 9.44 14 10C14 10.55 14.44 11 15 11Z" fill="#000000" fill-opacity="1.000000" fill-rule="evenodd"/>
	</g>
</svg>
