<svg width="16" height="16" viewBox="0 0 16 16" fill="none" xmlns="http://www.w3.org/2000/svg">
<path d="M8 1C4.13438 1 1 4.13438 1 8C1 11.8656 4.13438 15 8 15C11.8656 15 15 11.8656 15 8C15 4.13438 11.8656 1 8 1ZM8 13.8125C4.79063 13.8125 2.1875 11.2094 2.1875 8C2.1875 4.79063 4.79063 2.1875 8 2.1875C11.2094 2.1875 13.8125 4.79063 13.8125 8C13.8125 11.2094 11.2094 13.8125 8 13.8125Z" fill="white"/>
<path d="M10.7078 5.54395C10.7078 5.4752 10.6516 5.41895 10.5828 5.41895L9.55156 5.42363L7.99844 7.2752L6.44688 5.4252L5.41406 5.42051C5.34531 5.42051 5.28906 5.4752 5.28906 5.54551C5.28906 5.5752 5.3 5.60332 5.31875 5.62676L7.35156 8.04863L5.31875 10.4689C5.29987 10.4918 5.28939 10.5205 5.28906 10.5502C5.28906 10.6189 5.34531 10.6752 5.41406 10.6752L6.44688 10.6705L7.99844 8.81895L9.55 10.6689L10.5812 10.6736C10.65 10.6736 10.7062 10.6189 10.7062 10.5486C10.7062 10.5189 10.6953 10.4908 10.6766 10.4674L8.64687 8.04707L10.6797 5.6252C10.6984 5.60332 10.7078 5.57363 10.7078 5.54395Z" fill="white"/>
</svg>
