<svg width="24.000000" height="24.000000" viewBox="0 0 24 24" fill="#000000" xmlns="http://www.w3.org/2000/svg" xmlns:xlink="http://www.w3.org/1999/xlink">
	<desc>
			Created with Pixso.
	</desc>
	<defs>
		<clipPath id="clip1_509">
			<rect id="SIZE=24, NAME=MAIL" width="24.000000" height="24.000000" fill="white" fill-opacity="0"/>
		</clipPath>
	</defs>
	<g clip-path="url(#clip1_509)">
		<path id="Vector (Stroke)" d="M0 3.81C0 3.36 0.35 3 0.79 3L23.2 3C23.64 3 24 3.36 24 3.81L24 20.18C24 20.63 23.64 21 23.2 21L0.79 21C0.35 21 0 20.63 0 20.18L0 3.81ZM1.59 5.4L1.59 19.36L22.4 19.36L22.4 5.4L12.46 12.66C12.18 12.86 11.81 12.86 11.53 12.66L1.59 5.4ZM20.7 4.63L3.29 4.63L12 10.99L20.7 4.63Z"  fill-opacity="1.000000" fill-rule="evenodd"/>
	</g>
</svg>
