<svg width="16" height="16" viewBox="0 0 16 16" fill="none" xmlns="http://www.w3.org/2000/svg">
<g clip-path="url(#clip0_135_10130)">
<path d="M4.33325 5.40683C3.73992 5.40683 3.25992 4.92683 3.25992 4.3335C3.25992 4.04883 3.373 3.77582 3.57429 3.57453C3.77558 3.37325 4.04859 3.26016 4.33325 3.26016C4.92658 3.26016 5.40658 3.74016 5.40658 4.3335C5.40658 4.61816 5.2935 4.89117 5.09221 5.09246C4.89092 5.29375 4.61792 5.40683 4.33325 5.40683ZM4.33325 1.3335C2.66659 1.3335 1.33325 2.66683 1.33325 4.3335C1.33325 6.58016 4.33325 9.90683 4.33325 9.90683C4.33325 9.90683 7.33325 6.58016 7.33325 4.3335C7.33325 2.66683 5.99992 1.3335 4.33325 1.3335ZM11.6666 5.40683C11.3819 5.40683 11.1089 5.29375 10.9076 5.09246C10.7063 4.89117 10.5933 4.61816 10.5933 4.3335C10.5933 4.19254 10.621 4.05297 10.675 3.92275C10.7289 3.79253 10.808 3.6742 10.9076 3.57453C11.0073 3.47487 11.1256 3.39581 11.2558 3.34187C11.3861 3.28793 11.5256 3.26016 11.6666 3.26016C11.8075 3.26016 11.9471 3.28793 12.0773 3.34187C12.2076 3.39581 12.3259 3.47487 12.4255 3.57453C12.5252 3.6742 12.6043 3.79253 12.6582 3.92275C12.7122 4.05297 12.7399 4.19254 12.7399 4.3335C12.7399 4.61816 12.6268 4.89117 12.4255 5.09246C12.2243 5.29375 11.9513 5.40683 11.6666 5.40683ZM11.6666 1.3335C9.99992 1.3335 8.66658 2.66683 8.66658 4.3335C8.66658 6.58016 11.6666 9.90683 11.6666 9.90683C11.6666 9.90683 14.6666 6.58016 14.6666 4.3335C14.6666 2.66683 13.3333 1.3335 11.6666 1.3335ZM11.6666 10.6668C10.8199 10.6668 10.0666 11.2002 9.78658 12.0002H6.21325C6.0366 11.5012 5.66936 11.0926 5.19201 10.8639C4.71465 10.6353 4.16611 10.6051 3.66659 10.7802C3.41831 10.8672 3.18961 11.0022 2.99357 11.1777C2.79752 11.3531 2.63798 11.5655 2.52406 11.8026C2.41013 12.0397 2.34406 12.297 2.32963 12.5597C2.31519 12.8224 2.35267 13.0853 2.43992 13.3335C2.61896 13.8338 2.98868 14.2428 3.46833 14.4714C3.94798 14.7 4.49859 14.7295 4.99992 14.5535C5.56659 14.3535 5.99992 13.9002 6.21325 13.3335H9.79325C10.1599 14.3735 11.3066 14.9202 12.3333 14.5535C12.5823 14.4674 12.8118 14.3329 13.0088 14.1578C13.2057 13.9827 13.366 13.7704 13.4806 13.5332C13.5952 13.2959 13.6618 13.0383 13.6766 12.7752C13.6913 12.5122 13.654 12.2488 13.5666 12.0002C13.2799 11.2002 12.5199 10.6668 11.6666 10.6668ZM11.6666 13.6668C11.4014 13.6668 11.147 13.5615 10.9595 13.3739C10.7719 13.1864 10.6666 12.932 10.6666 12.6668C10.6666 12.4016 10.7719 12.1473 10.9595 11.9597C11.147 11.7722 11.4014 11.6668 11.6666 11.6668C11.9318 11.6668 12.1862 11.7722 12.3737 11.9597C12.5612 12.1473 12.6666 12.4016 12.6666 12.6668C12.6666 12.932 12.5612 13.1864 12.3737 13.3739C12.1862 13.5615 11.9318 13.6668 11.6666 13.6668Z" fill="#394857"/>
</g>
<defs>
<clipPath id="clip0_135_10130">
<rect width="16" height="16" fill="white"/>
</clipPath>
</defs>
</svg>
