<svg width="16" height="16" viewBox="0 0 16 16" fill="none" xmlns="http://www.w3.org/2000/svg">
<path fill-rule="evenodd" clip-rule="evenodd" d="M6.69617 12.0094C6.69357 11.6558 6.83154 11.3157 7.07974 11.0638C7.32795 10.8119 7.66604 10.6689 8.01965 10.6663C8.37327 10.6637 8.71343 10.8017 8.96531 11.0499C9.21719 11.2981 9.36016 11.6362 9.36276 11.9898C9.36537 12.3434 9.22739 12.6836 8.97919 12.9355C8.73099 13.1874 8.39289 13.3303 8.03928 13.3329C7.68567 13.3355 7.34551 13.1976 7.09362 12.9494C6.84174 12.7012 6.69877 12.3631 6.69617 12.0094ZM6.63729 4.00966C6.63468 3.65605 6.77266 3.31589 7.02086 3.06401C7.26906 2.81212 7.60716 2.66915 7.96077 2.66655C8.31438 2.66395 8.65455 2.80193 8.90643 3.05013C9.15831 3.29833 9.30128 3.63642 9.30388 3.99004C9.30648 4.34365 9.16851 4.68381 8.92031 4.93569C8.67211 5.18758 8.33401 5.33054 7.9804 5.33315C7.62679 5.33575 7.28662 5.19777 7.03474 4.94957C6.78286 4.70137 6.63989 4.36328 6.63729 4.00966ZM6.66673 8.00955C6.66413 7.65594 6.8021 7.31578 7.0503 7.0639C7.2985 6.81201 7.6366 6.66905 7.99021 6.66644C8.34382 6.66384 8.68399 6.80182 8.93587 7.05002C9.18775 7.29822 9.33072 7.63631 9.33332 7.98993C9.33593 8.34354 9.19795 8.6837 8.94975 8.93558C8.70155 9.18747 8.36345 9.33043 8.00984 9.33304C7.65623 9.33564 7.31606 9.19766 7.06418 8.94946C6.8123 8.70126 6.66933 8.36317 6.66673 8.00955Z" fill="black"/>
</svg>
