<svg width="24.000000" height="24.000000" viewBox="0 0 24 24" fill="#000000" xmlns="http://www.w3.org/2000/svg" xmlns:xlink="http://www.w3.org/1999/xlink">
	<desc>
			Created with Pixso.
	</desc>
	<defs>
		<clipPath id="clip1_513">
			<rect id="SIZE=24, NAME=PHONE" width="24.000000" height="24.000000" fill="white" fill-opacity="0"/>
		</clipPath>
	</defs>
	<g clip-path="url(#clip1_513)">
		<path id="Vector (Stroke)" d="M3.73 6.04C3.29 6.62 3 7.44 3 8.62C3 9.33 3.07 9.78 3.17 10.05C3.27 10.31 3.36 10.34 3.36 10.34C3.38 10.35 3.46 10.38 3.67 10.31C3.88 10.24 4.14 10.1 4.43 9.88C5.03 9.46 5.64 8.85 6.12 8.33C6.36 8.07 6.55 7.83 6.69 7.67C6.76 7.59 6.82 7.52 6.85 7.48C6.87 7.45 6.88 7.44 6.89 7.42L6.9 7.41L6.9 7.41C7.04 7.23 7.26 7.12 7.5 7.12L16.5 7.12C16.73 7.12 16.95 7.23 17.09 7.41L17.09 7.41L17.1 7.42C17.11 7.44 17.12 7.45 17.14 7.48C17.17 7.52 17.23 7.59 17.3 7.67C17.44 7.83 17.63 8.07 17.87 8.33C18.35 8.85 18.96 9.46 19.56 9.88C19.85 10.1 20.11 10.24 20.32 10.31C20.53 10.38 20.61 10.35 20.63 10.34C20.63 10.34 20.72 10.31 20.82 10.05C20.92 9.78 21 9.33 21 8.62C21 7.44 20.7 6.62 20.26 6.04C19.81 5.45 19.15 5.03 18.31 4.73C16.58 4.13 14.29 4.12 12 4.12C9.7 4.12 7.41 4.13 5.68 4.73C4.84 5.03 4.18 5.45 3.73 6.04ZM16.14 8.62C16.14 8.62 16.14 8.63 16.14 8.63C16.29 8.81 16.51 9.06 16.76 9.34C17.27 9.89 17.96 10.59 18.68 11.11C19.04 11.36 19.44 11.6 19.85 11.73C20.25 11.87 20.74 11.93 21.22 11.72C21.71 11.51 22.03 11.09 22.22 10.57C22.41 10.06 22.5 9.41 22.5 8.62C22.5 7.18 22.13 6.02 21.45 5.13C20.77 4.24 19.84 3.68 18.81 3.32C16.81 2.62 14.27 2.62 12.08 2.62L11.91 2.62C9.72 2.62 7.18 2.62 5.18 3.32C4.15 3.68 3.22 4.24 2.54 5.13C1.86 6.02 1.5 7.18 1.5 8.62C1.5 9.41 1.58 10.06 1.77 10.57C1.96 11.09 2.28 11.51 2.77 11.72C3.25 11.93 3.74 11.87 4.14 11.73C4.55 11.6 4.95 11.36 5.31 11.11C6.03 10.59 6.72 9.89 7.23 9.34C7.48 9.06 7.7 8.81 7.85 8.63C7.85 8.63 7.85 8.62 7.85 8.62L16.14 8.62ZM7.71 9.59C7.86 9.45 8.05 9.37 8.25 9.37L15.75 9.37C15.94 9.37 16.13 9.45 16.28 9.59L15.75 10.12C16.28 9.59 16.28 9.59 16.28 9.59L16.28 9.59L16.28 9.6L16.29 9.61C16.3 9.62 16.32 9.63 16.33 9.65C16.37 9.68 16.41 9.73 16.47 9.8C16.58 9.92 16.74 10.11 16.93 10.35C17.3 10.84 17.79 11.56 18.28 12.49C19.27 14.36 20.25 17.1 20.25 20.62C20.25 21.03 19.91 21.37 19.5 21.37L4.5 21.37C4.08 21.37 3.75 21.03 3.75 20.62C3.75 17.1 4.72 14.36 5.71 12.49C6.2 11.56 6.69 10.84 7.06 10.35C7.25 10.11 7.41 9.92 7.52 9.8C7.58 9.73 7.62 9.68 7.66 9.65C7.67 9.63 7.69 9.62 7.7 9.61L7.71 9.6L7.71 9.59L7.71 9.59L7.71 9.59C7.71 9.59 7.71 9.59 8.25 10.12L7.71 9.59ZM8.58 10.87C8.49 10.97 8.38 11.1 8.25 11.27C7.92 11.7 7.48 12.34 7.03 13.19C6.21 14.75 5.39 17 5.26 19.87L18.73 19.87C18.6 17 17.78 14.75 16.96 13.19C16.51 12.34 16.07 11.7 15.74 11.27C15.61 11.1 15.5 10.97 15.41 10.87L8.58 10.87Z"  fill-opacity="1.000000" fill-rule="evenodd"/>
		<path id="Vector (Stroke)" d="M12 13.12C10.75 13.12 9.75 14.13 9.75 15.37C9.75 16.61 10.75 17.62 12 17.62C13.24 17.62 14.25 16.61 14.25 15.37C14.25 14.13 13.24 13.12 12 13.12ZM8.25 15.37C8.25 13.3 9.92 11.62 12 11.62C14.07 11.62 15.75 13.3 15.75 15.37C15.75 17.44 14.07 19.12 12 19.12C9.92 19.12 8.25 17.44 8.25 15.37Z"  fill-opacity="1.000000" fill-rule="evenodd"/>
	</g>
</svg>
