<svg width="16" height="17" viewBox="0 0 16 17" fill="#900909" xmlns="http://www.w3.org/2000/svg">
<path fill-rule="evenodd" clip-rule="evenodd" d="M7.99948 2.50905L6.62923 6.3047L6.62416 6.31829C6.52749 6.56884 6.35704 6.78413 6.13534 6.93567C5.91402 7.08696 5.65205 7.16761 5.38398 7.16699C5.38352 7.16699 5.38307 7.16699 5.38262 7.16699L5.38484 6.50033V7.16699H5.38398H2.03304C2.02085 7.15603 2.00796 7.14525 1.995 7.13521C1.99445 7.13478 1.99395 7.13439 1.99351 7.13402C1.99129 7.13221 1.99039 7.13122 1.99038 7.1312C1.99037 7.13118 1.99109 7.13196 1.99221 7.13365C1.99265 7.13431 1.99308 7.13501 1.99351 7.13574C1.99366 7.136 1.99381 7.13627 1.99396 7.13655C1.99577 7.13982 1.99737 7.14367 1.99844 7.14769C1.99996 7.15339 1.99989 7.15697 1.99972 7.15854C1.99911 7.15933 1.99786 7.1607 1.99552 7.16245C1.99486 7.16294 1.99419 7.1634 1.99351 7.16383C1.99111 7.16536 1.98865 7.16652 1.98659 7.16721C1.98576 7.16748 1.9853 7.16758 1.9853 7.16757C1.98528 7.16756 1.98776 7.16699 1.99351 7.16699H2.03304L4.43028 9.32385C4.42243 9.31752 4.4145 9.31128 4.40649 9.30512L4.00018 9.83366L4.44608 9.33806L4.43028 9.32385C4.63787 9.49119 4.78975 9.718 4.86529 9.97421C4.93962 10.2263 4.93645 10.4945 4.85673 10.7442L4.86369 10.7148L4.21484 10.5617L4.84292 10.7852C4.84775 10.7716 4.85236 10.758 4.85673 10.7442L3.98236 14.4501C3.97953 14.4621 3.97638 14.4739 3.9729 14.4857C3.96709 14.4896 3.96134 14.4935 3.95565 14.4975C3.95421 14.4963 3.95355 14.4955 3.95354 14.4955C3.95369 14.4957 3.95427 14.4965 3.955 14.4979C3.94836 14.5026 3.94655 14.5024 3.94955 14.5016C3.95157 14.501 3.95392 14.5006 3.9562 14.5005C3.95657 14.5014 3.95696 14.5024 3.95734 14.5035C3.95919 14.5089 3.96025 14.5152 3.9602 14.521C3.9602 14.5212 3.96021 14.5209 3.9602 14.521C3.96015 14.5242 3.9598 14.5262 3.95984 14.526C3.95988 14.5258 3.96018 14.5244 3.96113 14.5218C3.96235 14.5184 3.96355 14.515 3.96472 14.5115C3.96762 14.503 3.97034 14.4944 3.9729 14.4857C3.9758 14.4838 3.97872 14.4819 3.98166 14.4801L7.24867 12.4071C7.24359 12.4105 7.23854 12.414 7.23351 12.4176L7.61684 12.963L7.25966 12.4001L7.24867 12.4071C7.47003 12.256 7.73191 12.1751 8.00018 12.1751C8.26844 12.1751 8.53032 12.256 8.75168 12.4071L8.74069 12.4001L8.38351 12.963L8.76684 12.4176C8.76181 12.414 8.75676 12.4105 8.75168 12.4071L12.0187 14.4801C12.0216 14.4819 12.0245 14.4838 12.0275 14.4857C12.03 14.4942 12.0326 14.5027 12.0355 14.5111C12.0367 14.5146 12.0379 14.5181 12.0391 14.5216C12.0402 14.5246 12.0405 14.5261 12.0405 14.5261C12.0405 14.5261 12.0402 14.5244 12.0402 14.5214C12.0402 14.5213 12.0402 14.5215 12.0402 14.5214C12.0402 14.5157 12.0412 14.5094 12.043 14.504C12.0435 14.5027 12.0439 14.5015 12.0444 14.5005C12.0467 14.5006 12.049 14.501 12.051 14.5016C12.0521 14.5019 12.0525 14.5021 12.0522 14.502C12.0517 14.5018 12.0495 14.5007 12.0456 14.4981C12.0462 14.4969 12.0467 14.4962 12.0468 14.496C12.0468 14.496 12.0463 14.4966 12.045 14.4977C12.045 14.4977 12.045 14.4977 12.045 14.4977C12.0392 14.4936 12.0333 14.4896 12.0275 14.4857C12.024 14.4739 12.0208 14.4621 12.018 14.4501L11.1436 10.7442C11.148 10.7579 11.1526 10.7716 11.1574 10.7852L11.7855 10.5617L11.1367 10.7148L11.1436 10.7442C11.0639 10.4945 11.0607 10.2263 11.1351 9.97421C11.2106 9.718 11.3625 9.4912 11.5701 9.32385L11.5543 9.33806L12.0002 9.83366L11.5939 9.30512C11.5859 9.31128 11.5779 9.31752 11.5701 9.32385L13.9673 7.16699H14.0062C14.0147 7.16699 14.0165 7.16819 14.0137 7.16729C14.0116 7.16657 14.0088 7.16526 14.0062 7.16347C14.0058 7.16319 14.0053 7.16289 14.0049 7.16258C14.0024 7.16069 14.0011 7.15921 14.0005 7.1584C14.0003 7.1569 14.0002 7.15335 14.0017 7.14764C14.0028 7.14375 14.0043 7.14001 14.0061 7.13682C14.006 7.1369 14.0061 7.13675 14.0061 7.13682C14.0066 7.13585 14.0073 7.1347 14.0078 7.13385C14.0102 7.13028 14.0107 7.13087 14.0062 7.13455C14.0058 7.13484 14.0054 7.13515 14.005 7.13548C13.9922 7.14543 13.9794 7.15612 13.9673 7.16699H10.6148C10.067 7.16699 9.57108 6.83079 9.37465 6.316L9.37045 6.3047L7.99987 2.50811C8.0009 2.50558 8.00192 2.50304 8.00293 2.50049C8.00423 2.50064 8.00522 2.50085 8.00581 2.50102C8.00665 2.50126 8.00563 2.5011 8.00328 2.4996M7.99948 2.50905C7.99961 2.50873 7.99974 2.50842 7.99987 2.50811L7.99948 2.50905ZM2.0002 7.1578C2.0002 7.15781 2.00035 7.15757 2.0002 7.1578V7.1578ZM6.7738 1.983C7.22537 0.882165 8.81372 0.896201 9.24063 2.01867L9.24457 2.02929L10.618 5.83366H14.0062C15.2389 5.83366 15.8241 7.38271 14.8439 8.17189L12.4461 10.3293C12.4371 10.3373 12.428 10.3451 12.4186 10.3527C12.4246 10.3711 12.4299 10.3897 12.4344 10.4086L13.3083 14.1127C13.7078 15.3345 12.3083 16.2935 11.293 15.5987L8.02633 13.5259C8.01747 13.5203 8.00875 13.5145 8.00018 13.5084C7.9916 13.5145 7.98288 13.5203 7.97403 13.5259L4.70746 15.5986C3.69247 16.2939 2.29261 15.3335 2.69205 14.1126L3.56599 10.4086C3.57044 10.3897 3.57571 10.3711 3.58178 10.3527C3.5724 10.3451 3.56323 10.3373 3.55427 10.3293L1.15663 8.17203C0.174255 7.38197 0.763733 5.83366 1.99351 5.83366H5.38172L6.75512 2.02929C6.7608 2.01354 6.76704 1.99811 6.7738 1.983Z" />
</svg>
