<svg width="16" height="16" viewBox="0 0 16 16" fill="none" xmlns="http://www.w3.org/2000/svg">
<g clip-path="url(#clip0_165_3414)">
<path d="M13.918 8.33917C14.182 7.9923 14.3281 7.5673 14.3281 7.12511C14.3281 6.42355 13.9337 5.75948 13.299 5.38917C13.1356 5.29385 12.9496 5.24368 12.7602 5.24386H8.99283L9.08709 3.32355C9.10908 2.85948 8.94412 2.41886 8.62363 2.08292C8.46635 1.91734 8.27659 1.7856 8.06609 1.69584C7.8556 1.60607 7.62882 1.5602 7.39979 1.56105C6.58285 1.56105 5.86018 2.10792 5.64337 2.89073L4.29385 7.75011H2.2625C1.98442 7.75011 1.75977 7.97355 1.75977 8.25011V13.9376C1.75977 14.2142 1.98442 14.4376 2.2625 14.4376H11.7092C11.8537 14.4376 11.9951 14.4095 12.1255 14.3532C12.8733 14.036 13.3556 13.3095 13.3556 12.5032C13.3556 12.3064 13.3273 12.1126 13.2708 11.9251C13.5347 11.5782 13.6808 11.1532 13.6808 10.711C13.6808 10.5142 13.6525 10.3204 13.596 10.1329C13.8599 9.78605 14.006 9.36105 14.006 8.91886C14.0029 8.72198 13.9746 8.52667 13.918 8.33917ZM2.89091 13.3126V8.87511H4.16345V13.3126H2.89091ZM12.889 7.79698L12.5449 8.09386L12.7633 8.49073C12.8353 8.62147 12.8726 8.76826 12.8717 8.9173C12.8717 9.17511 12.7586 9.42042 12.5638 9.58917L12.2197 9.88605L12.4381 10.2829C12.5101 10.4137 12.5474 10.5605 12.5465 10.7095C12.5465 10.9673 12.4334 11.2126 12.2386 11.3814L11.8945 11.6782L12.1129 12.0751C12.1849 12.2058 12.2222 12.3526 12.2213 12.5017C12.2213 12.8517 12.0139 13.1673 11.6934 13.311H5.16892V8.82511L6.7321 3.1923C6.77241 3.04792 6.85894 2.92055 6.97857 2.82948C7.09821 2.73841 7.24443 2.6886 7.39508 2.68761C7.51448 2.68761 7.63231 2.72198 7.72657 2.7923C7.8821 2.90792 7.96537 3.08292 7.95594 3.26886L7.80512 6.36886H12.7445C13.0241 6.53917 13.1969 6.82667 13.1969 7.12511C13.1969 7.38292 13.0838 7.62667 12.889 7.79698Z" fill="#394857"/>
</g>
<defs>
<clipPath id="clip0_165_3414">
<rect width="16" height="16" fill="white"/>
</clipPath>
</defs>
</svg>
