<svg width="16" height="16" viewBox="0 0 16 16" fill="none" xmlns="http://www.w3.org/2000/svg">
<g clip-path="url(#clip0_135_10147)">
<path d="M4.49985 10.5686C4.87116 10.5686 5.22725 10.4211 5.4898 10.1585C5.75235 9.89595 5.89985 9.53986 5.89985 9.16855C5.89985 8.79725 5.75235 8.44116 5.4898 8.17861C5.22725 7.91605 4.87116 7.76855 4.49985 7.76855C4.12855 7.76855 3.77245 7.91605 3.5099 8.17861C3.24735 8.44116 3.09985 8.79725 3.09985 9.16855C3.09985 9.53986 3.24735 9.89595 3.5099 10.1585C3.77245 10.4211 4.12855 10.5686 4.49985 10.5686ZM11.4999 10.5686C11.8712 10.5686 12.2273 10.4211 12.4898 10.1585C12.7524 9.89595 12.8999 9.53986 12.8999 9.16855C12.8999 8.79725 12.7524 8.44116 12.4898 8.17861C12.2273 7.91605 11.8712 7.76855 11.4999 7.76855C11.1286 7.76855 10.7725 7.91605 10.5099 8.17861C10.2474 8.44116 10.0999 8.79725 10.0999 9.16855C10.0999 9.53986 10.2474 9.89595 10.5099 10.1585C10.7725 10.4211 11.1286 10.5686 11.4999 10.5686Z" stroke="#394857" stroke-miterlimit="1.5" stroke-linecap="round" stroke-linejoin="round"/>
<path d="M9.4 9.16875V1.88875C9.4 1.77736 9.35575 1.67053 9.27699 1.59177C9.19822 1.513 9.09139 1.46875 8.98 1.46875H1.42C1.30861 1.46875 1.20178 1.513 1.12302 1.59177C1.04425 1.67053 1 1.77736 1 1.88875V8.74875C1 8.86014 1.04425 8.96697 1.12302 9.04574C1.20178 9.1245 1.30861 9.16875 1.42 9.16875H2.855M9.4 9.16875H5.935M9.4 9.16875H10.1M9.4 3.56875H13.327C13.4082 3.56877 13.4876 3.59232 13.5557 3.63655C13.6238 3.68077 13.6776 3.74378 13.7106 3.81795L14.9636 6.63755C14.9875 6.69109 14.9999 6.74903 15 6.80765V8.74875C15 8.80391 14.9891 8.85852 14.968 8.90948C14.9469 8.96043 14.916 9.00674 14.877 9.04574C14.838 9.08474 14.7917 9.11567 14.7407 9.13678C14.6898 9.15789 14.6352 9.16875 14.58 9.16875H13.25" stroke="#394857" stroke-linecap="round"/>
<path d="M1.69995 13.3686H14.125M1.69995 13.3686L2.92495 14.5936M1.69995 13.3686L2.92495 12.1436M14.125 13.3686L12.9 14.5936M14.125 13.3686L12.9 12.1436" stroke="#394857" stroke-linecap="round" stroke-linejoin="round"/>
</g>
<defs>
<clipPath id="clip0_135_10147">
<rect width="16" height="16" fill="white"/>
</clipPath>
</defs>
</svg>
