<svg width="16" height="16" viewBox="0 0 16 16" fill="none" xmlns="http://www.w3.org/2000/svg">
<path d="M12.3636 13.375C12.0743 13.375 11.7968 13.2565 11.5922 13.0455C11.3877 12.8345 11.2727 12.5484 11.2727 12.25C11.2727 11.9516 11.3877 11.6655 11.5922 11.4545C11.7968 11.2435 12.0743 11.125 12.3636 11.125C12.653 11.125 12.9304 11.2435 13.135 11.4545C13.3396 11.6655 13.4545 11.9516 13.4545 12.25C13.4545 12.5484 13.3396 12.8345 13.135 13.0455C12.9304 13.2565 12.653 13.375 12.3636 13.375ZM13.4545 6.625L14.88 8.5H11.6364V6.625M3.63636 13.375C3.34704 13.375 3.06956 13.2565 2.86497 13.0455C2.66039 12.8345 2.54545 12.5484 2.54545 12.25C2.54545 11.9516 2.66039 11.6655 2.86497 11.4545C3.06956 11.2435 3.34704 11.125 3.63636 11.125C3.92569 11.125 4.20317 11.2435 4.40775 11.4545C4.61234 11.6655 4.72727 11.9516 4.72727 12.25C4.72727 12.5484 4.61234 12.8345 4.40775 13.0455C4.20317 13.2565 3.92569 13.375 3.63636 13.375ZM13.8182 5.5H11.6364V2.5H1.45455C0.647273 2.5 0 3.1675 0 4V12.25H1.45455C1.45455 12.8467 1.68442 13.419 2.09359 13.841C2.50276 14.2629 3.05771 14.5 3.63636 14.5C4.21502 14.5 4.76997 14.2629 5.17914 13.841C5.58831 13.419 5.81818 12.8467 5.81818 12.25H10.1818C10.1818 12.8467 10.4117 13.419 10.8209 13.841C11.23 14.2629 11.785 14.5 12.3636 14.5C12.9423 14.5 13.4972 14.2629 13.9064 13.841C14.3156 13.419 14.5455 12.8467 14.5455 12.25H16V8.5L13.8182 5.5Z" fill="#394857"/>
</svg>
