<svg width="24.000000" height="24.000000" viewBox="0 0 24 24" fill="#000000" xmlns="http://www.w3.org/2000/svg" xmlns:xlink="http://www.w3.org/1999/xlink">
	<desc>
			Created with Pixso.
	</desc>
	<defs>
		<clipPath id="clip1_507">
			<rect id="SIZE=24, NAME=USER" width="24.000000" height="24.000000" fill="white" fill-opacity="0"/>
		</clipPath>
	</defs>
	<g clip-path="url(#clip1_507)">
		<path id="Vector" d="M20.12 17.89C19.67 16.84 19.03 15.89 18.23 15.09C17.42 14.29 16.47 13.65 15.43 13.2C15.42 13.2 15.41 13.2 15.4 13.19C16.86 12.14 17.81 10.42 17.81 8.48C17.81 5.27 15.21 2.67 12 2.67C8.78 2.67 6.18 5.27 6.18 8.48C6.18 10.42 7.13 12.14 8.59 13.19C8.58 13.2 8.57 13.2 8.56 13.2C7.51 13.65 6.57 14.28 5.76 15.09C4.96 15.9 4.32 16.85 3.87 17.89C3.44 18.92 3.2 20.02 3.18 21.13C3.18 21.16 3.19 21.18 3.2 21.2C3.2 21.23 3.22 21.25 3.24 21.27C3.25 21.28 3.27 21.3 3.3 21.31C3.32 21.32 3.34 21.32 3.37 21.32L4.78 21.32C4.88 21.32 4.96 21.24 4.96 21.14C5.01 19.33 5.74 17.64 7.02 16.35C8.35 15.02 10.12 16.35 12 16.35C13.87 16.35 15.64 15.02 16.97 16.35C18.25 17.64 18.98 19.33 19.03 21.14C19.03 21.24 19.11 21.32 19.21 21.32L20.62 21.32C20.65 21.32 20.67 21.32 20.69 21.31C20.72 21.3 20.74 21.28 20.75 21.27C20.77 21.25 20.79 21.23 20.79 21.2C20.8 21.18 20.81 21.16 20.81 21.13C20.78 20.01 20.55 18.92 20.12 17.89ZM12 14.25C10.92 14.25 9.91 12.09 9.15 11.33C8.38 10.57 7.96 9.56 7.96 8.48C7.96 7.4 8.38 6.39 9.15 5.63C9.91 4.87 10.92 4.45 12 4.45C13.07 4.45 14.08 4.87 14.84 5.63C15.61 6.39 16.03 7.4 16.03 8.48C16.03 9.56 15.61 10.57 14.84 11.33C14.08 12.09 13.07 14.25 12 14.25Z" fill-opacity="1.000000" fill-rule="evenodd"/>
	</g>
</svg>
