<svg width="16" height="16" viewBox="0 0 16 16" fill="none" xmlns="http://www.w3.org/2000/svg">
<path d="M8 0.5C6.70563 0.5 5.65625 1.54938 5.65625 2.84375C5.65625 3.37687 5.83981 3.85619 6.13963 4.25H4.25L1.4375 10.8125H14.5625L11.75 4.25H9.86038C10.1602 3.85619 10.3438 3.37687 10.3438 2.84375C10.3438 1.54938 9.29437 0.5 8 0.5ZM8 1.4375C8.77669 1.4375 9.40625 2.06706 9.40625 2.84375C9.40625 3.62044 8.77669 4.25 8 4.25C7.22331 4.25 6.59375 3.62041 6.59375 2.84375C6.59375 2.06709 7.22331 1.4375 8 1.4375ZM7.86819 11.75C7.3941 11.7834 6.95039 11.9956 6.62678 12.3437C6.30317 12.6918 6.12382 13.1497 6.125 13.625C6.125 14.1223 6.32254 14.5992 6.67417 14.9508C7.02581 15.3025 7.50272 15.5 8 15.5C8.49728 15.5 8.9742 15.3025 9.32583 14.9508C9.67746 14.5992 9.875 14.1223 9.875 13.625C9.87564 13.3673 9.82314 13.1122 9.72078 12.8757C9.61841 12.6391 9.46839 12.4263 9.28007 12.2503C9.09175 12.0744 8.86918 11.9391 8.62626 11.853C8.38334 11.767 8.12527 11.7319 7.86819 11.75Z" fill="#394857"/>
</svg>
