<svg width="32.000000" height="32.000000" viewBox="0 0 32 32" fill="#000000" xmlns="http://www.w3.org/2000/svg" xmlns:xlink="http://www.w3.org/1999/xlink">
	<desc>
			Created with Pixso.
	</desc>
	<defs>
		<clipPath id="clip1_535">
			<rect id="SIZE=32, NAME=FACEBOOK" width="32.000000" height="32.000000" fill="white" fill-opacity="0"/>
		</clipPath>
	</defs>
	<g clip-path="url(#clip1_535)">
		<path id="Vector" d="M26.66 4L5.33 4C4.97 4 4.64 4.14 4.39 4.39C4.14 4.64 4 4.97 4 5.33L4 26.66C4 27.02 4.14 27.35 4.39 27.6C4.64 27.85 4.97 28 5.33 28L16.82 28L16.82 18.71L13.7 18.71L13.7 15.08L16.82 15.08L16.82 12.42C16.82 9.31 18.71 7.63 21.48 7.63C22.41 7.62 23.35 7.67 24.28 7.77L24.28 11L22.36 11C20.86 11 20.56 11.71 20.56 12.76L20.56 15.08L24.16 15.08L23.69 18.71L20.56 18.71L20.56 28L26.66 28C27.02 28 27.35 27.85 27.6 27.6C27.85 27.35 28 27.02 28 26.66L28 5.33C28 4.97 27.85 4.64 27.6 4.39C27.35 4.14 27.02 4 26.66 4Z"  fill-opacity="1.000000" fill-rule="evenodd"/>
	</g>
</svg>
