<svg width="32.000000" height="32.000000" viewBox="0 0 32 32" fill="#000000" xmlns="http://www.w3.org/2000/svg" xmlns:xlink="http://www.w3.org/1999/xlink">
	<desc>
			Created with Pixso.
	</desc>
	<defs>
		<clipPath id="clip1_527">
			<rect id="SIZE=32, NAME=LINKEDIN" width="32.000000" height="32.000000" fill="white" fill-opacity="0"/>
		</clipPath>
	</defs>
	<g clip-path="url(#clip1_527)">
		<path id="Vector" d="M26.49 3.5L5.5 3.5C4.4 3.5 3.5 4.4 3.5 5.5L3.5 26.49C3.5 27.6 4.4 28.5 5.5 28.5L26.49 28.5C27.59 28.5 28.5 27.6 28.5 26.49L28.5 5.5C28.5 4.4 27.59 3.5 26.49 3.5ZM26.49 26.5C12.49 26.49 5.5 26.49 5.5 26.49C5.5 12.49 5.5 5.5 5.5 5.5C19.5 5.5 26.5 5.5 26.5 5.5C26.49 19.5 26.49 26.5 26.49 26.5ZM7.2 12.87L10.91 12.87L10.91 24.8L7.2 24.8L7.2 12.87ZM9.06 11.24C10.24 11.24 11.21 10.27 11.21 9.09C11.21 8.8 11.15 8.52 11.04 8.26C10.94 8 10.78 7.77 10.58 7.57C10.38 7.37 10.14 7.21 9.88 7.1C9.62 6.99 9.34 6.94 9.06 6.94C8.78 6.94 8.5 6.99 8.23 7.1C7.97 7.21 7.74 7.37 7.54 7.57C7.34 7.77 7.18 8 7.07 8.26C6.96 8.52 6.91 8.8 6.91 9.09C6.9 10.27 7.87 11.24 9.06 11.24ZM16.94 18.9C16.94 17.34 17.24 15.83 19.17 15.83C21.07 15.83 21.09 17.61 21.09 19L21.09 24.8L24.8 24.8L24.8 18.25C24.8 15.04 24.11 12.57 20.35 12.57C18.55 12.57 17.34 13.56 16.84 14.5L16.79 14.5L16.79 12.87L13.24 12.87L13.24 24.8L16.94 24.8L16.94 18.9Z"  fill-opacity="1.000000" fill-rule="evenodd"/>
	</g>
</svg>
