<svg width="32.000000" height="32.000000" viewBox="0 0 32 32" fill="#000000" xmlns="http://www.w3.org/2000/svg" xmlns:xlink="http://www.w3.org/1999/xlink">
	<desc>
			Created with Pixso.
	</desc>
	<defs>
		<clipPath id="clip1_529">
			<rect id="SIZE=32, NAME=YOUTUBE" width="32.000000" height="32.000000" fill="white" fill-opacity="0"/>
		</clipPath>
	</defs>
	<g clip-path="url(#clip1_529)">
		<path id="Vector" d="M28.79 9.6C28.63 9.04 28.34 8.52 27.93 8.11C27.51 7.7 27 7.4 26.44 7.24C24.35 6.67 16 6.66 16 6.66C16 6.66 7.64 6.65 5.55 7.2C4.99 7.36 4.48 7.66 4.07 8.08C3.65 8.49 3.36 9.01 3.2 9.57C2.65 11.66 2.64 15.99 2.64 15.99C2.64 15.99 2.64 20.34 3.18 22.41C3.49 23.55 4.39 24.45 5.54 24.76C7.64 25.34 15.98 25.34 15.98 25.34C15.98 25.34 24.33 25.35 26.42 24.81C26.98 24.65 27.49 24.36 27.91 23.94C28.32 23.53 28.62 23.02 28.77 22.46C29.33 20.37 29.33 16.04 29.33 16.04C29.33 16.04 29.36 11.69 28.79 9.6ZM13.32 20L13.33 12L20.27 16.01L13.32 20Z" fill-opacity="1.000000" fill-rule="evenodd"/>
	</g>
</svg>
